<?xml version="1.0" encoding="iso-8859-1"?>
<!-- Generator: Adobe Illustrator 19.0.0, SVG Export Plug-In . SVG Version: 6.00 Build 0)  -->
<svg version="1.1" id="Capa_1" xmlns="http://www.w3.org/2000/svg" xmlns:xlink="http://www.w3.org/1999/xlink" x="0px" y="0px"
	 viewBox="0 0 512 512" style="enable-background:new 0 0 512 512;" xml:space="preserve">
<circle style="fill:#87D7F5;" cx="256" cy="256" r="256"/>
<g>
	<path style="fill:#BAEAF7;" d="M484.961,141.403c-15.333-30.575-36.602-57.654-62.307-79.719h-28.362
		c-7.421,0-13.233,6.071-13.325,13.491c-0.09,7.28-6.02,13.154-13.324,13.152h-31.272c-7.173,0-13.346,5.512-13.685,12.677
		c-0.361,7.65,5.737,13.967,13.309,13.967h3.702c7.422,0,13.232,6.073,13.325,13.494c0.091,7.279,6.022,13.152,13.323,13.152h116.23
		C483.386,141.618,484.182,141.539,484.961,141.403z"/>
	<path style="fill:#BAEAF7;" d="M51.926,101.438H192.12c7.358,0,13.323-5.965,13.323-13.323s-5.965-13.323-13.323-13.323h-21.354
		c-7.358,0-13.323-5.965-13.323-13.323s5.965-13.323,13.323-13.323h38.354c7.358,0,13.323-5.965,13.323-13.323
		S216.479,21.5,209.12,21.5h-55.927C112.968,39.161,78.156,66.86,51.926,101.438z"/>
	<path style="fill:#BAEAF7;" d="M255.62,75.005h-19.854c-7.358,0-13.323,5.965-13.323,13.323c0,7.358,5.965,13.323,13.323,13.323
		h19.854c7.358,0,13.323-5.965,13.323-13.323S262.978,75.005,255.62,75.005z"/>
</g>
<path style="fill:#EFBE9A;" d="M297.734,169.03c-2.116,16.915-3.176,33.924-3.176,50.947v73.914V473.59v35.521
	c16.578-2.504,32.63-6.607,48.004-12.13v-23.39V293.89v-73.914c0-17.023-1.06-34.032-3.176-50.947L319.229,7.877
	c-0.431-0.11-0.866-0.209-1.297-0.317L297.734,169.03z"/>
<path style="fill:#E8AB79;" d="M318.56,473.589V293.89v-73.914c0-17.023,1.06-34.032,3.176-50.947l8.825-70.553l-11.333-90.6
	c-0.431-0.11-0.866-0.209-1.297-0.317L297.734,169.03c-2.116,16.915-3.176,33.924-3.176,50.947v73.914V473.59v35.521
	c8.134-1.229,16.139-2.847,24.002-4.824L318.56,473.589L318.56,473.589z"/>
<path style="fill:#EFBE9A;" d="M366.565,53.479L366.565,53.479l-20.826,166.497c-2.116,16.915-3.176,33.924-3.176,50.947
	c0,7.778,0,218.591,0,226.057c16.897-6.071,32.967-13.868,48.004-23.179c0-5.623,0-196.941,0-202.878
	c0-17.023-1.061-34.032-3.176-50.947L366.565,53.479z"/>
<path style="fill:#E8AB79;" d="M366.565,270.923c0-17.023,1.061-34.032,3.176-50.947l8.825-70.553l-12.001-95.944h-0.001
	l-20.826,166.497c-2.116,16.915-3.176,33.924-3.176,50.947c0,7.778,0,218.591,0,226.057c8.205-2.948,16.211-6.311,24.002-10.049
	C366.565,466.114,366.565,293.746,366.565,270.923z"/>
<path style="fill:#EFBE9A;" d="M172.613,169.03c-2.116,16.915-3.176,33.924-3.176,50.947v73.914V473.59v23.39
	c15.374,5.524,31.426,9.626,48.004,12.13v-35.521V293.89v-73.914c0-17.023-1.061-34.032-3.176-50.947L194.068,7.56
	c-0.432,0.107-0.866,0.207-1.297,0.317L172.613,169.03z"/>
<path style="fill:#E8AB79;" d="M193.44,496.98v-23.39c0-7.803,0-163.801,0-179.699v-3.685v-70.229
	c0-17.023,1.06-34.032,3.176-50.947l8.825-70.553L194.068,7.56c-0.432,0.107-0.866,0.207-1.297,0.317L172.613,169.03
	c-2.116,16.915-3.176,33.924-3.176,50.947v73.914V473.59v23.39c7.831,2.813,15.84,5.253,24.002,7.306L193.44,496.98L193.44,496.98z"
	/>
<path style="fill:#EFBE9A;" d="M145.436,53.479L145.436,53.479L124.61,219.976c-2.116,16.915-3.176,33.924-3.176,50.947
	c0,5.965,0,197.265,0,202.878c15.038,9.311,31.107,17.108,48.004,23.179c0-7.468,0-218.285,0-226.057
	c0-17.023-1.061-34.032-3.176-50.947L145.436,53.479z"/>
<path style="fill:#E8AB79;" d="M145.435,474.713v-0.912v-73.002c0-26.545,0-103.243,0-129.876c0-17.023,1.061-34.032,3.176-50.947
	l8.825-70.553l-12.001-95.944l0,0l-20.826,166.497c-2.116,16.915-3.176,33.924-3.176,50.947c0,5.965,0,197.265,0,202.878
	c7.735,4.79,15.748,9.171,24.002,13.13L145.435,474.713L145.435,474.713z"/>
<g>
	<path style="fill:#C68A59;" d="M324.322,382.04c0.954,0.419,2.018-0.276,2.018-1.318c0-0.141,0-87.134,0-86.977
		c0-4.166-3.143-7.82-7.301-8.068c-4.515-0.27-8.258,3.31-8.258,7.766c0,5.671,0,86.972,0,81.409c0,0.914,0.559,1.734,1.406,2.076
		C316.307,378.591,320.353,380.296,324.322,382.04z"/>
	<path style="fill:#C68A59;" d="M371.765,406.517c1.14,0.681,2.58-0.135,2.58-1.463c0-2.484,0-88.582,0-87.906
		c0-4.166-3.143-7.82-7.301-8.069c-4.514-0.27-8.259,3.31-8.259,7.765c0,0.141,0,80.435,0,80.279c0,1.202,0.657,2.308,1.707,2.892
		C364.339,402.157,368.098,404.326,371.765,406.517z"/>
	<path style="fill:#C68A59;" d="M187.678,382.04c-0.954,0.419-2.018-0.276-2.018-1.318c0-1.41,0-87.507,0-86.977
		c0-4.166,3.143-7.82,7.301-8.068c4.515-0.27,8.258,3.31,8.258,7.766c0,3.115,0,83.835,0,81.409c0,0.914-0.559,1.734-1.406,2.076
		C195.693,378.591,191.647,380.296,187.678,382.04z"/>
	<path style="fill:#C68A59;" d="M140.235,406.517c-1.14,0.681-2.58-0.135-2.58-1.463c0-2.484,0-88.582,0-87.906
		c0-4.166,3.143-7.82,7.301-8.069c4.514-0.27,8.259,3.31,8.259,7.765c0,16.587,0,55.848,0,75.086v5.193
		c0,1.202-0.657,2.308-1.707,2.892C147.661,402.157,143.902,404.326,140.235,406.517z"/>
</g>
<path style="fill:#E8AB79;" d="M408.082,235.005L408.082,235.005l-15.198,75.994c-1.544,7.72-2.317,15.484-2.317,23.253
	c0,24.339,0,73.709,0,87.013c0,29.744,0,22.592,0,52.536c12.425-7.693,24.14-16.419,35.031-26.059
	c0-126.821,0.609-122.107-2.318-136.743L408.082,235.005z"/>
<path style="fill:#D89E68;" d="M425,448.259c-1.029-1.3-2.178-2.517-3.451-3.623c-4.42-3.841-8.917-7.573-13.467-11.228
	c0-24.308,0-41.168,0-65.419c0.449-28.59-1.286-38.966,2.317-56.99l6.44-32.203l-8.757-43.791l0,0l-15.198,75.994
	c-1.544,7.72-2.317,15.484-2.317,23.253c0,17.685,0,33.023,0,85.756v1.258c0,29.745,0,22.609,0,52.536
	C402.34,466.512,413.92,458.007,425,448.259z"/>
<path id="SVGCleanerId_0" style="fill:#E8AB79;" d="M460.628,334.252c0-7.77-0.774-15.533-2.317-23.253l-15.198-75.994l0,0
	l-15.198,75.994c-2.722,13.615-2.317,7.239-2.317,136.743c12.903-11.421,24.649-24.117,35.03-37.903
	C460.628,393.819,460.628,349.914,460.628,334.252z"/>
<g>
	<path id="SVGCleanerId_0_1_" style="fill:#E8AB79;" d="M460.628,334.252c0-7.77-0.774-15.533-2.317-23.253l-15.198-75.994l0,0
		l-15.198,75.994c-2.722,13.615-2.317,7.239-2.317,136.743c12.903-11.421,24.649-24.117,35.03-37.903
		C460.628,393.819,460.628,349.914,460.628,334.252z"/>
</g>
<path style="fill:#D89E68;" d="M443.113,334.252c0-7.77,0.387-15.533,1.159-23.253l4.68-46.8l-5.838-29.194l-15.198,75.994
	c-2.722,13.615-2.317,7.239-2.317,136.743c6.108-5.407,11.947-11.108,17.515-17.067
	C443.113,396.211,443.113,368.593,443.113,334.252z"/>
<path style="fill:#E8AB79;" d="M217.442,317.064V509.11c12.577,1.9,25.452,2.89,38.558,2.89V309.064L217.442,317.064z"/>
<path style="fill:#D89E68;" d="M254.286,354.595c-2.563,0.161-5.095,0.688-7.517,1.566c-9.942,3.266-19.718,6.851-29.328,10.737
	v81.41c14.768-6.114,27.976-10.832,38.558-14.3v-79.464C255.429,354.544,254.857,354.557,254.286,354.595z"/>
<path style="fill:#EFBE9A;" d="M256,512c13.106,0,25.981-0.99,38.558-2.89V317.064l-38.558-8L256,512L256,512z"/>
<g>
	<path style="fill:#E8AB79;" d="M294.558,366.898c-9.535-3.855-19.234-7.415-29.096-10.66c-3.031-1.129-6.239-1.699-9.462-1.694
		v79.464c10.582,3.467,23.79,8.186,38.558,14.3L294.558,366.898L294.558,366.898z"/>
	<path style="fill:#E8AB79;" d="M256,266.001c16.667,0,31.353,6.431,39.992,16.2v-31.758H256h-39.992v31.758
		C224.647,272.432,239.333,266.001,256,266.001z"/>
	<path style="fill:#E8AB79;" d="M294.558,448.308c14.784,6.12,31.134,13.647,48.004,22.733v-81.412
		c-15.475-8.473-31.49-16.054-48.004-22.731V448.308z"/>
	<path style="fill:#E8AB79;" d="M342.563,471.041c8.527,4.593,17.184,9.584,25.839,14.995c7.606-3.724,15.006-7.802,22.166-12.235
		v-53.793c-15.348-11.136-31.366-21.269-48.004-30.379v81.412H342.563z"/>
</g>
<g>
	<circle style="fill:#C68A59;" cx="443.11" cy="239.23" r="11"/>
	<circle style="fill:#C68A59;" cx="408.08" cy="239.23" r="11"/>
</g>
<g>
	<path style="fill:#E8AB79;" d="M169.438,471.042c16.871-9.087,33.221-16.614,48.004-22.734v-81.41
		c-16.515,6.677-32.53,14.258-48.004,22.73V471.042z"/>
	<path style="fill:#E8AB79;" d="M169.438,471.042v-81.414c-16.638,9.11-32.656,19.243-48.004,30.379v53.794
		c7.16,4.433,14.561,8.512,22.167,12.236C152.254,480.626,160.91,475.634,169.438,471.042z"/>
	<path style="fill:#E8AB79;" d="M103.918,235.005L103.918,235.005L88.72,310.999c-1.544,7.72-2.318,15.484-2.318,23.253
		c0,23.211,0,89.777,0,113.49c10.891,9.64,22.606,18.366,35.031,26.059c0-29.919,0-22.779,0-52.536c0-25.722,0-74.171,0-87.013
		c0-7.77-0.774-15.533-2.317-23.253L103.918,235.005z"/>
</g>
<g>
	<path style="fill:#D89E68;" d="M90.45,444.635c-1.273,1.106-2.422,2.324-3.451,3.624c10.723,9.433,22.234,17.988,34.434,25.542
		c0-29.919,0-22.778,0-52.536v-1.258C110.779,427.737,100.446,435.949,90.45,444.635z"/>
	<path style="fill:#D89E68;" d="M104.473,447.742c0-24.654,0-91.282,0-113.49c0-7.77,0.774-15.533,2.318-23.253l6.162-30.814
		l-9.035-45.179l0,0L88.72,310.999c-1.544,7.72-2.318,15.484-2.318,23.253c0,23.211,0,89.777,0,113.49
		c5.794,5.128,11.828,9.989,18.071,14.583V447.742z"/>
</g>
<path style="fill:#E8AB79;" d="M68.887,235.005L68.887,235.005l-15.198,75.994c-1.543,7.72-2.317,15.484-2.317,23.253
	c0,15.577,0,59.581,0,75.587c10.381,13.786,22.127,26.482,35.03,37.903c0-13.17,0-99.557,0-113.49c0-7.77-0.774-15.533-2.317-23.253
	L68.887,235.005z"/>
<path style="fill:#D89E68;" d="M68.887,334.252c0-7.77,0.774-15.533,2.317-23.253l6.44-32.203l-8.758-43.791l-15.198,75.994
	c-1.543,7.72-2.317,15.484-2.317,23.253c0,15.577,0,59.581,0,75.587c5.466,7.26,11.322,14.208,17.515,20.836
	C68.887,407.156,68.887,358.523,68.887,334.252z"/>
<path style="fill:#C68A59;" d="M256,405.673c-59.006,16.525-105.607,41.86-139.339,65.102C156.76,496.844,204.607,512,256,512
	s99.24-15.156,139.339-41.225C361.607,447.533,315.006,422.198,256,405.673z"/>
<path style="fill:#D89E68;" d="M256,404.371c-0.011-0.004-0.023-0.007-0.033-0.011c0.003,0.006,0.007,0.012,0.011,0.017
	c-27.314,8.435-84.98,28.988-139.874,66.031c5.992,3.918,12.152,7.599,18.479,11.013c4.113-5.349,8.194-10.268,12.072-14.691
	c5.73-6.536,16.545-1.139,14.484,7.238c-1.482,6.02-3.125,12.021-4.849,17.884c3.573,1.512,7.191,2.938,10.844,4.29
	c8.222-23.29,17.776-42.286,27.23-57.524c5.022-8.095,17.733-5.176,18.455,4.272c1.539,20.15-0.434,43.869-3.304,64.885
	c3.715,0.682,7.461,1.276,11.23,1.795c5.415-39.488,16.287-69.201,26.968-90.279c1.007-1.987,2.567-3.645,4.507-4.787
	c2.326-1.37,5.233-1.37,7.56,0l0.401,0.236c1.678,0.988,3.024,2.426,3.898,4.143c10.748,21.101,21.726,50.943,27.176,90.686
	c3.77-0.519,7.515-1.113,11.23-1.795c-2.87-21.016-4.843-44.735-3.304-64.885c0.722-9.448,13.433-12.367,18.455-4.272
	c9.454,15.238,19.008,34.233,27.23,57.524c3.653-1.353,7.271-2.778,10.844-4.29c-1.724-5.862-3.367-11.864-4.849-17.884
	c-2.061-8.377,8.754-13.774,14.484-7.238c3.877,4.423,7.958,9.342,12.072,14.691c6.326-3.415,12.486-7.096,18.478-11.013
	c-54.893-37.043-112.559-57.597-139.874-66.031c0.004-0.006,0.007-0.012,0.011-0.017C256.022,404.364,256.011,404.367,256,404.371z"
	/>
<path style="fill:#EFBE9A;" d="M256.033,381.561v-0.022c-0.011,0.004-0.022,0.008-0.033,0.011c-0.011-0.003-0.022-0.007-0.033-0.011
	v0.022c-65.443,21.366-114.284,54.324-147.807,83.455c2.924,2.072,5.897,4.079,8.91,6.029
	c54.613-36.639,111.786-56.991,138.93-65.371c27.145,8.381,84.317,28.732,138.93,65.371c3.013-1.95,5.985-3.957,8.91-6.029
	C370.317,435.885,321.477,402.927,256.033,381.561z"/>
<g>
	<circle style="fill:#C68A59;" cx="103.92" cy="239.23" r="11"/>
	<circle style="fill:#C68A59;" cx="68.887" cy="239.23" r="11"/>
</g>
<path style="fill:#B77D51;" d="M256,512c6.642,0,13.224-0.258,19.738-0.755v-13.526c0-1.995-0.294-3.98-0.844-5.897
	c-3.842-13.387-8.448-24.464-12.997-33.395c-0.638-1.253-1.621-2.303-2.845-3.024l-0.293-0.172c-1.62-0.954-3.636-1.036-5.285-0.133
	c-1.524,0.835-2.748,2.098-3.523,3.627c-4.57,9.019-9.188,20.207-13.024,33.727c-0.45,1.586-0.665,3.232-0.665,4.881v13.913
	C242.776,511.742,249.358,512,256,512z"/>
<path style="fill:#A5704C;" d="M255.541,501.367v-4.036c0-1.648,0.215-3.295,0.665-4.881c2.829-9.972,6.085-18.666,9.432-26.166
	c-1.24-2.778-2.492-5.408-3.74-7.859c-0.638-1.253-1.621-2.303-2.845-3.024l-0.293-0.172c-1.623-0.953-3.642-1.035-5.292-0.129
	c-1.521,0.836-2.742,2.097-3.516,3.624c-4.57,9.019-9.188,20.207-13.024,33.727c-0.45,1.586-0.665,3.232-0.665,4.881v13.913
	C242.776,511.742,249.358,512,256,512c3.228,0,6.441-0.063,9.639-0.183c-0.034-0.001-0.068-0.003-0.102-0.004
	C259.946,511.601,255.541,506.964,255.541,501.367z"/>
<polygon style="fill:#D89E68;" points="217.442,317.064 256,277.397 256,309.064 "/>
<polygon style="fill:#E8AB79;" points="256,277.397 294.558,317.064 256,309.064 "/>
<ellipse style="fill:#569FDB;" cx="256" cy="349.31" rx="14.5" ry="20.75"/>
<path style="fill:#4794C9;" d="M266,358.564c-8.008,0-14.5-9.29-14.5-20.75c0-3.131,0.499-6.089,1.366-8.75
	c-6.5,2.051-11.366,10.332-11.366,20.25c0,11.46,6.492,20.75,14.5,20.75c5.82,0,10.826-4.918,13.134-11.999
	C268.124,358.383,267.077,358.564,266,358.564z"/>
<path style="fill:#E8AB79;" d="M311.095,34.447l-9.79,78.269c-0.139,1.114,0.729,2.097,1.851,2.097h30.808
	c1.122,0,1.99-0.984,1.851-2.097l-9.79-78.269c-0.117-0.934-0.91-1.634-1.851-1.634h-11.229
	C312.005,32.813,311.211,33.513,311.095,34.447z"/>
<path style="fill:#D89E68;" d="M315.371,112.715l5.801-78.269c0.069-0.934,0.54-1.634,1.097-1.634h-9.323
	c-0.941,0-1.734,0.701-1.851,1.634l-9.79,78.269c-0.139,1.114,0.729,2.097,1.851,2.097h13.312
	C315.803,114.813,315.288,113.829,315.371,112.715z"/>
<circle style="fill:#C68A59;" cx="318.56" cy="11.561" r="11"/>
<path style="fill:#D89E68;" d="M328.414,53.536c0.733-2.965,1.147-6.304,1.147-9.84c0-12.224-4.925-22.135-11-22.135
	s-11,9.91-11,22.135c0,3.536,0.414,6.875,1.147,9.84H328.414z"/>
<g>
	<path style="fill:#C68A59;" d="M324.06,24.53c-1.618-1.885-3.496-2.969-5.5-2.969c-6.075,0-11,9.91-11,22.135
		c0,3.536,0.414,6.875,1.147,9.84h11c-0.732-2.965-1.146-6.304-1.146-9.84C318.56,35.504,320.773,28.358,324.06,24.53z"/>
	<path style="fill:#C68A59;" d="M367.044,285.079c-4.514-0.27-8.258,3.31-8.258,7.765v6.973c0,1.534,1.243,2.777,2.777,2.777h10.095
		c1.484,0,2.687-1.203,2.687-2.687v-6.76C374.345,288.982,371.202,285.327,367.044,285.079z"/>
	<path style="fill:#C68A59;" d="M367.044,253.637c-4.514-0.27-8.258,3.31-8.258,7.765v6.973c0,1.534,1.243,2.777,2.777,2.777h10.095
		c1.484,0,2.687-1.203,2.687-2.687v-6.76C374.345,257.54,371.202,253.886,367.044,253.637z"/>
	<path style="fill:#C68A59;" d="M367.044,222.196c-4.514-0.27-8.258,3.31-8.258,7.765v6.973c0,1.534,1.243,2.777,2.777,2.777h10.095
		c1.484,0,2.687-1.203,2.687-2.687v-6.76C374.345,226.099,371.202,222.444,367.044,222.196z"/>
	<path style="fill:#C68A59;" d="M367.044,190.754c-4.514-0.27-8.258,3.31-8.258,7.765v6.973c0,1.534,1.243,2.777,2.777,2.777h10.095
		c1.484,0,2.687-1.203,2.687-2.687v-6.76C374.345,194.658,371.202,191.003,367.044,190.754z"/>
	<path style="fill:#C68A59;" d="M319.039,253.637c-4.514-0.27-8.258,3.31-8.258,7.765v6.973c0,1.534,1.243,2.777,2.777,2.777h10.095
		c1.484,0,2.687-1.203,2.687-2.687v-6.76C326.34,257.54,323.197,253.886,319.039,253.637z"/>
	<path style="fill:#C68A59;" d="M319.039,222.196c-4.514-0.27-8.258,3.31-8.258,7.765v6.973c0,1.534,1.243,2.777,2.777,2.777h10.095
		c1.484,0,2.687-1.203,2.687-2.687v-6.76C326.34,226.099,323.197,222.444,319.039,222.196z"/>
	<path style="fill:#C68A59;" d="M319.039,190.754c-4.514-0.27-8.258,3.31-8.258,7.765v6.973c0,1.534,1.243,2.777,2.777,2.777h10.095
		c1.484,0,2.687-1.203,2.687-2.687v-6.76C326.34,194.658,323.197,191.003,319.039,190.754z"/>
	<path style="fill:#C68A59;" d="M319.039,159.313c-4.514-0.27-8.258,3.31-8.258,7.766v6.973c0,1.534,1.243,2.777,2.777,2.777h10.095
		c1.484,0,2.687-1.203,2.687-2.687v-6.76C326.34,163.216,323.197,159.561,319.039,159.313z"/>
	<path style="fill:#C68A59;" d="M144.956,285.079c4.514-0.27,8.258,3.31,8.258,7.765v6.973c0,1.534-1.243,2.777-2.777,2.777h-10.095
		c-1.484,0-2.687-1.203-2.687-2.687v-6.76C137.655,288.982,140.798,285.327,144.956,285.079z"/>
	<path style="fill:#C68A59;" d="M144.956,253.637c4.514-0.27,8.258,3.31,8.258,7.765v6.973c0,1.534-1.243,2.777-2.777,2.777h-10.095
		c-1.484,0-2.687-1.203-2.687-2.687v-6.76C137.655,257.54,140.798,253.886,144.956,253.637z"/>
	<path style="fill:#C68A59;" d="M144.956,222.196c4.514-0.27,8.258,3.31,8.258,7.765v6.973c0,1.534-1.243,2.777-2.777,2.777h-10.095
		c-1.484,0-2.687-1.203-2.687-2.687v-6.76C137.655,226.099,140.798,222.444,144.956,222.196z"/>
	<path style="fill:#C68A59;" d="M144.956,190.754c4.514-0.27,8.258,3.31,8.258,7.765v6.973c0,1.534-1.243,2.777-2.777,2.777h-10.095
		c-1.484,0-2.687-1.203-2.687-2.687v-6.76C137.655,194.658,140.798,191.003,144.956,190.754z"/>
	<path style="fill:#C68A59;" d="M192.961,253.637c4.514-0.27,8.258,3.31,8.258,7.765v6.973c0,1.534-1.243,2.777-2.777,2.777h-10.095
		c-1.484,0-2.687-1.203-2.687-2.687v-6.76C185.66,257.54,188.803,253.886,192.961,253.637z"/>
	<path style="fill:#C68A59;" d="M192.961,222.196c4.514-0.27,8.258,3.31,8.258,7.765v6.973c0,1.534-1.243,2.777-2.777,2.777h-10.095
		c-1.484,0-2.687-1.203-2.687-2.687v-6.76C185.66,226.099,188.803,222.444,192.961,222.196z"/>
	<path style="fill:#C68A59;" d="M192.961,190.754c4.514-0.27,8.258,3.31,8.258,7.765v6.973c0,1.534-1.243,2.777-2.777,2.777h-10.095
		c-1.484,0-2.687-1.203-2.687-2.687v-6.76C185.66,194.658,188.803,191.003,192.961,190.754z"/>
	<path style="fill:#C68A59;" d="M192.961,159.313c4.514-0.27,8.258,3.31,8.258,7.766v6.973c0,1.534-1.243,2.777-2.777,2.777h-10.095
		c-1.484,0-2.687-1.203-2.687-2.687v-6.76C185.66,163.216,188.803,159.561,192.961,159.313z"/>
</g>
<path style="fill:#E8AB79;" d="M185.974,34.447l-9.79,78.269c-0.139,1.114,0.729,2.097,1.851,2.097h30.808
	c1.122,0,1.991-0.984,1.851-2.097l-9.79-78.269c-0.117-0.934-0.91-1.634-1.851-1.634h-11.229
	C186.884,32.813,186.091,33.513,185.974,34.447z"/>
<path style="fill:#D89E68;" d="M190.25,112.715l5.801-78.269c0.069-0.934,0.54-1.634,1.097-1.634h-9.323
	c-0.941,0-1.734,0.701-1.851,1.634l-9.79,78.269c-0.139,1.114,0.729,2.097,1.851,2.097h13.312
	C190.682,114.813,190.168,113.829,190.25,112.715z"/>
<circle style="fill:#C68A59;" cx="193.44" cy="11.561" r="11"/>
<path style="fill:#D89E68;" d="M203.293,53.536c0.733-2.965,1.147-6.304,1.147-9.84c0-12.224-4.925-22.135-11-22.135
	s-11,9.91-11,22.135c0,3.536,0.414,6.875,1.146,9.84H203.293z"/>
<path style="fill:#C68A59;" d="M198.939,24.53c-1.618-1.885-3.496-2.969-5.5-2.969c-6.075,0-11,9.91-11,22.135
	c0,3.536,0.414,6.875,1.146,9.84h11c-0.732-2.965-1.146-6.304-1.146-9.84C193.439,35.504,195.653,28.358,198.939,24.53z"/>
<path style="fill:#E8AB79;" d="M359.099,84.698l-9.79,78.269c-0.139,1.114,0.729,2.097,1.851,2.097h30.808
	c1.122,0,1.991-0.984,1.851-2.097l-9.79-78.269c-0.117-0.934-0.91-1.634-1.851-1.634H360.95
	C360.009,83.064,359.216,83.765,359.099,84.698z"/>
<path style="fill:#D89E68;" d="M363.375,162.967l5.801-78.269c0.069-0.934,0.54-1.634,1.097-1.634h-9.323
	c-0.941,0-1.734,0.701-1.851,1.634l-9.79,78.269c-0.139,1.114,0.729,2.097,1.851,2.097h13.312
	C363.807,165.064,363.293,164.08,363.375,162.967z"/>
<circle style="fill:#C68A59;" cx="366.56" cy="61.813" r="11"/>
<path style="fill:#D89E68;" d="M376.418,103.787c0.733-2.965,1.147-6.304,1.147-9.84c0-12.224-4.925-22.134-11-22.134
	s-11,9.91-11,22.134c0,3.536,0.414,6.875,1.146,9.84H376.418z"/>
<path style="fill:#C68A59;" d="M372.065,74.781c-1.618-1.884-3.496-2.969-5.5-2.969c-6.075,0-11,9.91-11,22.135
	c0,3.536,0.414,6.875,1.146,9.84h11c-0.732-2.965-1.147-6.304-1.147-9.84C366.565,85.756,368.778,78.609,372.065,74.781z"/>
<path style="fill:#E8AB79;" d="M137.97,84.698l-9.79,78.269c-0.139,1.114,0.729,2.097,1.851,2.097h30.808
	c1.122,0,1.991-0.984,1.851-2.097l-9.79-78.269c-0.117-0.934-0.911-1.634-1.851-1.634H139.82
	C138.88,83.064,138.086,83.765,137.97,84.698z"/>
<path style="fill:#D89E68;" d="M142.246,162.967l5.801-78.269c0.069-0.934,0.54-1.634,1.097-1.634h-9.323
	c-0.941,0-1.735,0.701-1.851,1.634l-9.79,78.269c-0.139,1.114,0.729,2.097,1.851,2.097h13.312
	C142.678,165.064,142.163,164.08,142.246,162.967z"/>
<circle style="fill:#C68A59;" cx="145.44" cy="61.813" r="11"/>
<path style="fill:#D89E68;" d="M155.289,103.787c0.733-2.965,1.147-6.304,1.147-9.84c0-12.224-4.925-22.134-11-22.134
	s-11,9.91-11,22.134c0,3.536,0.414,6.875,1.146,9.84H155.289z"/>
<path style="fill:#C68A59;" d="M150.935,74.781c-1.618-1.884-3.496-2.969-5.5-2.969c-6.075,0-11,9.91-11,22.135
	c0,3.536,0.414,6.875,1.146,9.84h11c-0.732-2.965-1.146-6.304-1.146-9.84C145.435,85.756,147.648,78.609,150.935,74.781z"/>
<g>
</g>
<g>
</g>
<g>
</g>
<g>
</g>
<g>
</g>
<g>
</g>
<g>
</g>
<g>
</g>
<g>
</g>
<g>
</g>
<g>
</g>
<g>
</g>
<g>
</g>
<g>
</g>
<g>
</g>
</svg>
