<?xml version="1.0" encoding="iso-8859-1"?>
<!-- Generator: Adobe Illustrator 19.0.0, SVG Export Plug-In . SVG Version: 6.00 Build 0)  -->
<svg version="1.1" id="Capa_1" xmlns="http://www.w3.org/2000/svg" xmlns:xlink="http://www.w3.org/1999/xlink" x="0px" y="0px"
	 viewBox="0 0 512 512" style="enable-background:new 0 0 512 512;" xml:space="preserve">
<circle style="fill:#FCCB5B;" cx="256" cy="256" r="256"/>
<g>
	<path style="fill:#F9DDAA;" d="M144,254.547H37.637c-7.358,0-13.323,5.965-13.323,13.323s5.965,13.323,13.323,13.323h46.702
		c7.358,0,13.323,5.965,13.323,13.323s-5.965,13.323-13.323,13.323H41.187H5.255c1.865,9.068,4.224,17.955,7.02,26.646h28.912
		h54.626c7.358,0,13.323,5.965,13.323,13.323s-5.965,13.323-13.323,13.323h-5.611c-7.358,0-13.323,5.965-13.323,13.323
		s5.965,13.323,13.323,13.323H144V254.547z"/>
	<path style="fill:#F9DDAA;" d="M104.321,49.772h39.763c3.678,0,7.011,1.494,9.415,3.908c2.414,2.414,3.908,5.736,3.908,9.425
		c0,7.356-5.966,13.322-13.322,13.322h-31.5c-3.678,0-7.011,1.484-9.415,3.897c-2.414,2.414-3.908,5.736-3.908,9.425
		c0,7.356,5.966,13.322,13.322,13.322h73.306c3.678,0,7.011,1.494,9.415,3.908c2.414,2.403,3.908,5.736,3.908,9.415
		c0,7.356-5.966,13.322-13.322,13.322H86.473c-3.678,0-7.011,1.494-9.425,3.908c-2.403,2.403-3.897,5.736-3.897,9.415
		c0,7.356,5.966,13.322,13.322,13.322h39.16c3.678,0,7.011,1.494,9.415,3.908c2.414,2.403,3.908,5.736,3.908,9.415
		c0,7.356-5.966,13.322-13.322,13.322l-115.057,0.001C26.625,128.971,60.021,82.408,104.321,49.772z"/>
	<path style="fill:#F9DDAA;" d="M379.038,204.982h73.16c7.356,0,13.322-5.966,13.322-13.322c0-3.679-1.494-7.012-3.897-9.415
		c-2.414-2.414-5.747-3.908-9.425-3.908H423.78c-7.356,0-13.322-5.966-13.322-13.322c0-3.679,1.494-7.012,3.908-9.415
		c2.404-2.414,5.737-3.908,9.415-3.908h11.306h54.756c11.083,24.809,18.329,51.705,20.995,79.936l-131.802-0.001
		c-7.356,0-13.322-5.966-13.322-13.322c0-3.679,1.494-7.012,3.908-9.415C372.027,206.476,375.36,204.982,379.038,204.982z"/>
</g>
<path style="fill:#D89E68;" d="M180.538,500.689C204.394,508.037,229.733,512,256,512s51.607-3.963,75.462-11.311v-40.58H180.538
	V500.689z"/>
<g>
	<path style="fill:#C68A59;" d="M180.538,500.689c8.694,2.678,17.59,4.894,26.652,6.644V460.11h-26.652V500.689z"/>
	<path style="fill:#C68A59;" d="M342.665,412.252h-173.33v39.147c0,5.915,4.795,10.71,10.71,10.71h149.936
		c7.006,0,12.685-5.679,12.685-12.685v-37.172H342.665z"/>
</g>
<g>
	<path style="fill:#B77D51;" d="M196.48,451.399v-39.147h-27.145v39.147c0,5.915,4.795,10.71,10.71,10.71h27.146
		C201.275,462.109,196.48,457.314,196.48,451.399z"/>
	<path style="fill:#B77D51;" d="M203.899,422.551c-4.178,0-7.564,3.387-7.564,7.564v15.129c0,4.178,3.386,7.564,7.564,7.564
		s7.564-3.387,7.564-7.564v-15.129C211.463,425.938,208.077,422.551,203.899,422.551z"/>
	<path style="fill:#B77D51;" d="M238.297,422.551c-4.178,0-7.564,3.387-7.564,7.564v15.129c0,4.178,3.386,7.564,7.564,7.564
		s7.564-3.387,7.564-7.564v-15.129C245.862,425.938,242.476,422.551,238.297,422.551z"/>
	<path style="fill:#B77D51;" d="M272.696,422.551c-4.178,0-7.564,3.387-7.564,7.564v15.129c0,4.178,3.386,7.564,7.564,7.564
		s7.564-3.387,7.564-7.564v-15.129C280.26,425.938,276.874,422.551,272.696,422.551z"/>
	<path style="fill:#B77D51;" d="M307.094,422.551c-4.178,0-7.564,3.387-7.564,7.564v15.129c0,4.178,3.386,7.564,7.564,7.564
		s7.564-3.387,7.564-7.564v-15.129C314.659,425.938,311.273,422.551,307.094,422.551z"/>
	<path style="fill:#B77D51;" d="M366.201,249.877H145.799c-4.31,0-7.804,3.494-7.804,7.804v141.851c0,4.31,3.494,7.804,7.804,7.804
		h220.402c4.31,0,7.804-3.494,7.804-7.804V257.68C374.005,253.37,370.511,249.877,366.201,249.877z"/>
</g>
<rect x="169.34" y="191.73" style="fill:#C68A59;" width="173.33" height="49.857"/>
<rect x="169.34" y="191.73" style="fill:#B77D51;" width="27" height="49.857"/>
<polygon style="fill:#C68A59;" points="295.003,106.975 216.981,106.975 208.805,106.975 208.805,114.694 208.805,135.832 
	303.178,135.832 303.178,114.694 303.178,106.975 "/>
<path style="fill:#B77D51;" d="M235.805,114.694v21.138h-27v-28.857h34.719C239.261,106.975,235.805,110.431,235.805,114.694z"/>
<path style="fill:#D89E68;" d="M351.52,240.845H160.48c-3.736,0-6.764,3.028-6.764,6.764v157.973c0,3.736,3.028,6.764,6.764,6.764
	h191.04c3.736,0,6.764-3.028,6.764-6.764V247.609C358.284,243.873,355.256,240.845,351.52,240.845z"/>
<path style="fill:#C68A59;" d="M180.716,405.582V247.609c0-3.736,3.028-6.764,6.764-6.764h-27c-3.736,0-6.764,3.028-6.764,6.764
	v157.973c0,3.736,3.028,6.764,6.764,6.764h27C183.744,412.346,180.716,409.318,180.716,405.582z"/>
<circle style="fill:#E0E2E2;" cx="256" cy="326.6" r="72.1"/>
<circle style="fill:#CBD0D1;" cx="256" cy="326.6" r="35.942"/>
<path style="fill:#B3BBBC;" d="M276.351,350.788c-19.85,0-35.942-16.092-35.942-35.942c0-9.008,3.321-17.235,8.796-23.542
	c-16.6,3.177-29.148,17.766-29.148,35.292c0,19.85,16.092,35.942,35.942,35.942c10.842,0,20.556-4.808,27.146-12.4
	C280.944,350.559,278.675,350.787,276.351,350.788z"/>
<path style="fill:#CBD0D1;" d="M243.498,375.442c-34.486-19.911-46.302-64.008-26.391-98.494
	c4.131-7.155,9.314-13.317,15.225-18.439c-15.788,5.481-29.762,16.426-38.774,32.035c-19.911,34.486-8.095,78.583,26.391,98.494
	c27.332,15.78,60.688,11.615,83.269-7.952C284.124,387.714,262.374,386.341,243.498,375.442z"/>
<g>
	<path style="fill:#88888F;" d="M281.008,334.095H256c-4.142,0-7.5-3.358-7.5-7.5v-35.533c0-4.142,3.358-7.5,7.5-7.5
		c4.143,0,7.5,3.358,7.5,7.5v28.033h17.508c4.143,0,7.5,3.358,7.5,7.5C288.508,330.738,285.15,334.095,281.008,334.095z"/>
	<path style="fill:#88888F;" d="M248.5,254.887v6.268c0,4.142,3.358,7.5,7.5,7.5l0,0c4.142,0,7.5-3.358,7.5-7.5v-6.259
		C258.54,254.373,253.515,254.365,248.5,254.887z"/>
	<path style="fill:#88888F;" d="M256,384.536L256,384.536c-4.142,0-7.5,3.358-7.5,7.5v6.259c4.959,0.523,9.985,0.531,15,0.009
		v-6.268C263.5,387.894,260.142,384.536,256,384.536z"/>
	<path style="fill:#88888F;" d="M199.991,281.193l4.432,4.432c2.929,2.929,7.678,2.929,10.607,0l0,0
		c2.929-2.929,2.929-7.678,0-10.607l-4.426-4.426C206.727,273.729,203.168,277.278,199.991,281.193z"/>
	<path style="fill:#88888F;" d="M296.97,367.565L296.97,367.565c-2.929,2.929-2.929,7.678,0,10.607l4.426,4.426
		c3.876-3.137,7.436-6.685,10.613-10.6l-4.432-4.432C304.647,364.637,299.899,364.637,296.97,367.565z"/>
	<path style="fill:#88888F;" d="M184.291,334.095h6.268c4.142,0,7.5-3.358,7.5-7.5l0,0c0-4.142-3.358-7.5-7.5-7.5H184.3
		C183.777,324.054,183.769,329.08,184.291,334.095z"/>
	<path style="fill:#88888F;" d="M313.94,326.595L313.94,326.595c0,4.142,3.358,7.5,7.5,7.5h6.259c0.523-4.959,0.531-9.985,0.009-15
		h-6.268C317.298,319.095,313.94,322.453,313.94,326.595z"/>
	<path style="fill:#88888F;" d="M210.597,382.604l4.432-4.432c2.929-2.929,2.929-7.678,0-10.607l0,0
		c-2.929-2.929-7.678-2.929-10.606,0l-4.426,4.426C203.134,375.868,206.682,379.427,210.597,382.604z"/>
	<path style="fill:#88888F;" d="M296.97,285.625L296.97,285.625c2.929,2.929,7.678,2.929,10.607,0l4.426-4.426
		c-3.137-3.876-6.685-7.436-10.6-10.613l-4.432,4.432C294.041,277.948,294.041,282.696,296.97,285.625z"/>
</g>
<g>
	<path style="fill:#B77D51;" d="M203.899,202.026c-4.178,0-7.564,3.387-7.564,7.564v15.129c0,4.178,3.386,7.564,7.564,7.564
		s7.564-3.387,7.564-7.564V209.59C211.463,205.412,208.077,202.026,203.899,202.026z"/>
	<path style="fill:#B77D51;" d="M238.297,202.026c-4.178,0-7.564,3.387-7.564,7.564v15.129c0,4.178,3.386,7.564,7.564,7.564
		s7.564-3.387,7.564-7.564V209.59C245.862,205.412,242.476,202.026,238.297,202.026z"/>
	<path style="fill:#B77D51;" d="M272.696,202.026c-4.178,0-7.564,3.387-7.564,7.564v15.129c0,4.178,3.386,7.564,7.564,7.564
		s7.564-3.387,7.564-7.564V209.59C280.26,205.412,276.874,202.026,272.696,202.026z"/>
	<path style="fill:#B77D51;" d="M307.094,202.026c-4.178,0-7.564,3.387-7.564,7.564v15.129c0,4.178,3.386,7.564,7.564,7.564
		s7.564-3.387,7.564-7.564V209.59C314.659,205.412,311.273,202.026,307.094,202.026z"/>
</g>
<path style="fill:#9D9D9E;" d="M254.485,0.019c-11.527,50.737-45.68,106.956-45.68,106.956h94.373c0,0-34.153-56.219-45.68-106.956
	C256.998,0.016,256.501,0,256,0C255.493,0,254.991,0.016,254.485,0.019z"/>
<path style="fill:#88888F;" d="M256.285,0.004C256.19,0.003,256.095,0,256,0c-0.507,0-1.009,0.016-1.515,0.019
	c-11.527,50.737-45.68,106.956-45.68,106.956h34.157C244.431,97.894,252.064,49.554,256.285,0.004z"/>
<path style="fill:#9D9D9E;" d="M303.194,135.832h-94.388c-9.245,26.188-39.471,55.894-39.471,55.894H254h2h86.666
	C342.665,191.726,312.439,162.02,303.194,135.832z"/>
<path style="fill:#88888F;" d="M235.952,135.832h-27.146c-9.245,26.188-39.471,55.894-39.471,55.894h27.146
	C196.48,191.726,226.707,162.02,235.952,135.832z"/>
<path style="fill:#9D9D9E;" d="M343.243,138.71c0-4.178-3.386-7.564-7.564-7.564s-7.565,3.387-7.565,7.564
	c0,11.363,0,42.585,0,53.017h15.129v-0.221C343.243,191.605,343.243,148.679,343.243,138.71z"/>
<path style="fill:#88888F;" d="M184.463,191.726c0-22.347,0-30.616,0-53.017c0-4.178-3.386-7.564-7.564-7.564
	s-7.564,3.387-7.564,7.564c0,39.153,0,30.381,0,53.017H184.463z"/>
<g>
</g>
<g>
</g>
<g>
</g>
<g>
</g>
<g>
</g>
<g>
</g>
<g>
</g>
<g>
</g>
<g>
</g>
<g>
</g>
<g>
</g>
<g>
</g>
<g>
</g>
<g>
</g>
<g>
</g>
</svg>
