<?xml version="1.0" encoding="iso-8859-1"?>
<!-- Generator: Adobe Illustrator 19.0.0, SVG Export Plug-In . SVG Version: 6.00 Build 0)  -->
<svg version="1.1" id="Capa_1" xmlns="http://www.w3.org/2000/svg" xmlns:xlink="http://www.w3.org/1999/xlink" x="0px" y="0px"
	 viewBox="0 0 512 512" style="enable-background:new 0 0 512 512;" xml:space="preserve">
<circle style="fill:#91E0E8;" cx="256" cy="267" r="245"/>
<path style="fill:#1E8BC2;" d="M12.172,291C24.233,415.045,128.789,512,256,512c127.212,0,231.767-96.955,243.828-221H12.172z"/>
<path style="fill:#EF9614;" d="M354.707,382.908c0.047,0.131,0.147,0.236,0.274,0.29l17.065,7.262
	c0.062,0.026,0.128,0.04,0.196,0.04h51.774l-42.068-20.047c-5.521-2.632-13.644-3.308-20.513-2.037
	c-2.128,4.815-4.358,9.521-6.702,14.094C354.669,382.634,354.66,382.778,354.707,382.908z"/>
<path style="fill:#60D882;" d="M252.653,365.119c0.52,1.217,1.048,2.426,1.582,3.629l19.79-8.421
	c3.611-1.536,8.443-2.383,13.606-2.383s9.996,0.847,13.607,2.383l53.708,22.857c23.268-45.186,35.98-101.877,35.98-161.388
	c0-92.23-30.881-176.884-80.591-220.925C309.681,0.291,308.86,0,308.04,0c-0.821,0-1.641,0.291-2.296,0.871
	c-28.139,24.93-50.24,62.874-64.127,107.837c20.043,38.622,31.536,88.142,31.536,140.492
	C273.153,290.748,265.99,330.701,252.653,365.119z"/>
<g>
	<path style="fill:#37C47A;" d="M257.825,67.033l16.51,9.532c11.647-26.828,26.548-50.046,44.128-67.954
		c-2.651-2.699-5.358-5.287-8.128-7.74C309.681,0.291,308.86,0,308.04,0c-0.821,0-1.641,0.291-2.296,0.871
		c-18.947,16.786-35.154,39.477-47.963,66.232C257.794,67.078,257.813,67.059,257.825,67.033z"/>
	<path style="fill:#37C47A;" d="M271.89,361.235c-3.372-8.225-6.449-16.726-9.187-25.49c-2.759,10.388-6.024,20.426-9.769,30.033
		c0.429,0.999,0.886,1.971,1.324,2.96L271.89,361.235z"/>
</g>
<path style="fill:#2DA1DC;" d="M388.096,174.067c-1.417-11.988-3.333-23.743-5.777-35.159L257.825,67.033
	c-3.913,8.168-7.474,16.749-10.73,25.627L388.096,174.067z"/>
<path style="fill:#2E4C89;" d="M390.837,213.731L252.96,134.127c6.469,16.919,11.504,35.273,14.928,54.577l121.378,70.077
	c1.097-12.152,1.661-24.506,1.661-36.985C390.927,219.101,390.89,216.413,390.837,213.731z"/>
<g>
	<path style="fill:#FFFFFF;" d="M273.119,245.904c0.01,1.099,0.034,2.194,0.034,3.296c0,11.44-0.552,22.756-1.616,33.872
		l100.891,58.25c3.517-10.584,6.551-21.555,9.09-32.834L273.119,245.904z"/>
	<path style="fill:#FFFFFF;" d="M252.959,134.127l137.883,79.607c-0.263-13.439-1.195-26.689-2.729-39.657L247.046,92.632
		c-1.93,5.255-3.724,10.638-5.411,16.112C245.791,116.756,249.565,125.25,252.959,134.127z"/>
</g>
<path style="fill:#EF9614;" d="M125.262,390.5c0.123,0,0.242-0.046,0.334-0.128l10.037-9.009l-13.644-9.396
	c-6.795-4.679-17.914-4.679-24.709,0l-24.926,17.165c-0.677,0.467-1.253,0.921-1.772,1.367L125.262,390.5L125.262,390.5z"/>
<path style="fill:#2DA1DC;" d="M159.775,379.135l12.521,11.237c0.092,0.082,0.211,0.128,0.334,0.128h69.091
	c7.777-14.842,14.228-31.147,19.247-48.5c8.301-28.7,9.5-147.166,3.559-172.001c-11.28-47.151-32.495-87.247-60.711-112.244
	c-0.567-0.503-1.278-0.755-1.989-0.755s-1.422,0.252-1.989,0.755c-28.016,24.821-49.13,64.528-60.47,111.245
	c-6.096,25.115-4.881,145.031,3.607,173.998c3.401,11.607,7.444,22.739,12.099,33.273
	C156.808,376.945,158.404,377.904,159.775,379.135z"/>
<g>
	<path style="fill:#1E8BC2;" d="M139.97,166.639c7.072,3.45,13.124,8.662,17.593,15.061c9.431-47.204,28.603-88.283,54.763-115.71
		c-2.762-2.895-5.596-5.652-8.511-8.235c-0.567-0.503-1.278-0.755-1.989-0.755s-1.422,0.252-1.989,0.755
		C172.297,82.154,151.443,120.95,139.97,166.639L139.97,166.639z"/>
	<path style="fill:#1E8BC2;" d="M152.007,369c0.991,2.452,2.01,4.88,3.066,7.271c1.734,0.675,3.33,1.634,4.701,2.864l12.521,11.237
		c0.092,0.082,0.211,0.128,0.334,0.128h10.303c-3.597-6.864-6.9-14.05-9.918-21.5H152.007z"/>
</g>
<path style="fill:#2E4C89;" d="M237.827,305v-50.805l-33.5-58.023c-1.375-2.382-3.625-2.382-5,0l-33.5,58.023V305
	c0,16.77-8.977,31.438-22.384,39.475c2.522,8.441,5.365,16.643,8.559,24.525h99.651c3.193-7.883,6.037-16.084,8.559-24.525
	C246.804,336.438,237.827,321.77,237.827,305z"/>
<path style="fill:#FFAF10;" d="M143.413,344.494c13.424-8.034,22.414-22.712,22.414-39.494v-97c0-18.18-10.548-33.893-25.856-41.361
	c-6.472,25.775-9.97,53.735-9.97,82.561C130,282.68,134.64,315.132,143.413,344.494z"/>
<path style="fill:#EF9614;" d="M151,249.2c0-23.292,2.286-46.016,6.577-67.48c-4.471-6.408-10.528-11.628-17.607-15.081
	c-6.472,25.775-9.97,53.735-9.97,82.561c0,33.479,4.64,65.932,13.413,95.294c6.858-4.105,12.548-9.951,16.484-16.919
	C154.057,302.861,151,276.369,151,249.2z"/>
<path style="fill:#FFAF10;" d="M237.827,208v97c0,16.782,8.99,31.46,22.414,39.494c8.772-29.362,13.413-61.814,13.413-95.294
	c0-28.826-3.498-56.786-9.97-82.561C248.375,174.107,237.827,189.82,237.827,208z"/>
<circle style="fill:#60D882;" cx="201.23" cy="152" r="23"/>
<path style="fill:#37C47A;" d="M190,152c0-10.669,7.265-19.638,17.116-22.237c-1.878-0.496-3.85-0.763-5.884-0.763
	c-12.703,0-23,10.297-23,23s10.297,23,23,23c2.034,0,4.005-0.267,5.884-0.763C197.265,171.638,190,162.669,190,152z"/>
<g>
	<circle style="fill:#FFAA39;" cx="404.5" cy="344.5" r="8.5"/>
	<circle style="fill:#FFAA39;" cx="99" cy="328" r="8.5"/>
</g>
<g>
	<circle style="fill:#FFC987;" cx="71" cy="357" r="8.5"/>
	<circle style="fill:#FFC987;" cx="440" cy="368.5" r="8.5"/>
</g>
<circle style="fill:#EF9614;" cx="440" cy="326.5" r="8.5"/>
<path style="fill:#FFAA39;" d="M372.242,390l-70.809-30.133c-7.591-3.23-20.013-3.23-27.604,0l-22.326,9.501
	c-2.906,7.141-6.086,14.027-9.522,20.632H172.63l-12.521-11.237c-6.14-5.511-16.186-5.511-22.326,0L125.262,390H44.08
	C86.514,462.951,165.525,512,256,512c90.476,0,169.487-49.049,211.92-122H372.242z"/>
<path style="fill:#FFC987;" d="M390.5,449h-13.375c-4.143,0-7.5-3.357-7.5-7.5s3.357-7.5,7.5-7.5H390.5c4.143,0,7.5,3.357,7.5,7.5
	S394.643,449,390.5,449z"/>
<path style="fill:#EF9614;" d="M304.875,479H291.5c-4.143,0-7.5-3.357-7.5-7.5s3.357-7.5,7.5-7.5h13.375c4.143,0,7.5,3.357,7.5,7.5
	S309.018,479,304.875,479z"/>
<path style="fill:#FFC987;" d="M321,422h-13.375c-4.143,0-7.5-3.357-7.5-7.5s3.357-7.5,7.5-7.5H321c4.143,0,7.5,3.357,7.5,7.5
	S325.143,422,321,422z"/>
<path style="fill:#EF9614;" d="M240.5,436h-13.375c-4.143,0-7.5-3.357-7.5-7.5s3.357-7.5,7.5-7.5H240.5c4.143,0,7.5,3.357,7.5,7.5
	S244.643,436,240.5,436z"/>
<path style="fill:#FFC987;" d="M201.5,477h-13.375c-4.143,0-7.5-3.357-7.5-7.5s3.357-7.5,7.5-7.5H201.5c4.143,0,7.5,3.357,7.5,7.5
	S205.643,477,201.5,477z"/>
<path style="fill:#EF9614;" d="M148.5,431h-13.375c-4.143,0-7.5-3.357-7.5-7.5s3.357-7.5,7.5-7.5H148.5c4.143,0,7.5,3.357,7.5,7.5
	S152.643,431,148.5,431z"/>
<g>
</g>
<g>
</g>
<g>
</g>
<g>
</g>
<g>
</g>
<g>
</g>
<g>
</g>
<g>
</g>
<g>
</g>
<g>
</g>
<g>
</g>
<g>
</g>
<g>
</g>
<g>
</g>
<g>
</g>
</svg>
