<?xml version="1.0" encoding="iso-8859-1"?>
<!-- Generator: Adobe Illustrator 19.0.0, SVG Export Plug-In . SVG Version: 6.00 Build 0)  -->
<svg version="1.1" id="Layer_1" xmlns="http://www.w3.org/2000/svg" xmlns:xlink="http://www.w3.org/1999/xlink" x="0px" y="0px"
	 viewBox="0 0 512 512" style="enable-background:new 0 0 512 512;" xml:space="preserve">
<path style="fill:#D7F3FF;" d="M511.994,256c0,131.497-99.134,239.831-226.74,254.337c-1.638,0.197-3.276,0.369-4.926,0.517
	c-2.931,0.283-5.874,0.505-8.83,0.677c-1.638,0.111-3.288,0.185-4.926,0.259c-2.931,0.111-5.874,0.185-8.817,0.197
	c-0.579,0.012-1.17,0.012-1.749,0.012c-1.059,0-2.118-0.012-3.177-0.025c-2.956-0.025-5.899-0.111-8.83-0.259
	c-1.65-0.074-3.288-0.16-4.926-0.271C105.581,502.727,0.006,391.697,0.006,256c0-141.386,114.614-256,256-256
	C397.38,0,511.994,114.614,511.994,256z"/>
<rect x="258.463" y="21.945" style="fill:#FFFFFF;" width="7.389" height="78.815"/>
<polygon style="fill:#CCCCCC;" points="271.19,97.065 274.082,176.696 250.245,176.696 253.137,97.065 262.164,97.065 "/>
<polygon style="fill:#E6E6E6;" points="285.155,170.954 285.155,194.758 239.172,194.758 239.172,170.954 253.137,170.954 
	271.19,170.954 "/>
<path style="fill:#B3B3B3;" d="M295.413,188.195v34.481l-9.852,13.131l5.747,44.333l-1.24,203.203l-12.733,27.77
	c-7.032,0.591-14.15,0.887-21.329,0.887c-3.017,0-6.022-0.049-9.014-0.16l-14.794-32.199l1.642-119.864l0.821-115.759l-5.747-21.342
	v-34.481h10.258h45.983L295.413,188.195L295.413,188.195z"/>
<g>
	<path style="fill:#999999;" d="M257.755,197.221v314.766c-0.579,0.012-1.17,0.012-1.749,0.012c-1.059,0-2.118-0.012-3.177-0.025
		V197.221H257.755z"/>
	<path style="fill:#999999;" d="M271.498,197.221v314.311c-1.638,0.111-3.288,0.185-4.926,0.259V197.221H271.498z"/>
	<path style="fill:#999999;" d="M285.254,197.221v313.116c-1.638,0.197-3.276,0.369-4.926,0.517V197.221H285.254z"/>
	<path style="fill:#999999;" d="M243.999,197.221v314.495c-1.65-0.074-3.288-0.16-4.926-0.271V197.221H243.999z"/>
</g>
<g>
	<path style="fill:#666666;" d="M214.136,415.6l32.856,55.01l-42.708,36.169c-52.843-10.849-99.75-37.979-135.229-75.908h19.47
		v-14.445h22.167v22.167h32.844v-50.084h18.879v54.185h19.704V415.6L214.136,415.6L214.136,415.6z"/>
	<path style="fill:#666666;" d="M441.553,400.822h25.553c-34.481,50.207-86.425,87.484-147.063,103.099l-29.962-8.066l-5.751-41.255
		l25.861-33.25h18.066v-11.49h13.128v-13.14h17.241v40.232h25.455v-20.529h19.704V379.48h37.77L441.553,400.822L441.553,400.822z"/>
</g>
<g>
	<polygon style="fill:#CCCCCC;" points="246.992,222.676 246.992,280.958 220.7,280.958 220.7,222.676 228.914,222.676 	"/>
	<polygon style="fill:#CCCCCC;" points="303.627,222.676 303.627,280.958 277.335,280.958 277.335,222.676 295.413,222.676 	"/>
</g>
<g>
	<rect x="228.095" y="230.878" style="fill:#999999;" width="4.926" height="196.212"/>
	<rect x="237.121" y="230.878" style="fill:#999999;" width="4.926" height="196.212"/>
	<rect x="282.28" y="230.878" style="fill:#999999;" width="4.926" height="196.212"/>
	<rect x="291.307" y="230.878" style="fill:#999999;" width="4.926" height="196.212"/>
</g>
<g>
	<polygon style="fill:#E6E6E6;" points="246.992,272.748 246.992,473.894 214.136,473.894 214.136,417.97 214.136,272.748 
		220.7,272.748 	"/>
	<polygon style="fill:#E6E6E6;" points="310.191,430.914 310.191,483.343 277.335,483.343 277.335,272.748 303.627,272.748 
		310.191,272.748 	"/>
</g>
<g>
	<rect x="284.324" y="280.962" style="fill:#999999;" width="4.926" height="196.212"/>
	<rect x="295.826" y="280.962" style="fill:#999999;" width="4.926" height="196.212"/>
	<rect x="223.575" y="280.962" style="fill:#999999;" width="4.926" height="196.212"/>
	<rect x="235.065" y="280.962" style="fill:#999999;" width="4.926" height="196.212"/>
</g>
<g>
	<path style="fill:#CCCCCC;" d="M320.043,470.61v33.312c-2.315,0.603-4.643,1.158-6.982,1.687c-1.638,0.382-3.276,0.739-4.926,1.071
		c-2.18,0.456-4.372,0.874-6.564,1.268c-1.638,0.296-3.276,0.579-4.926,0.85c-2.18,0.332-4.359,0.653-6.564,0.948
		c-1.638,0.222-3.276,0.419-4.926,0.603c-2.598,0.296-5.197,0.542-7.82,0.764V470.61L320.043,470.61L320.043,470.61z"/>
	<path style="fill:#CCCCCC;" d="M246.992,470.61v41.23c-2.623-0.086-5.221-0.222-7.82-0.382c-1.65-0.111-3.288-0.234-4.926-0.369
		c-2.204-0.197-4.384-0.406-6.564-0.64c-1.65-0.185-3.288-0.382-4.926-0.591c-2.204-0.283-4.384-0.603-6.564-0.936
		c-1.65-0.259-3.288-0.53-4.926-0.813c-2.34-0.419-4.667-0.862-6.982-1.33V470.61L246.992,470.61L246.992,470.61z"/>
</g>
<g>
	<path style="fill:#999999;" d="M290.081,477.999v31.748c-1.638,0.222-3.276,0.419-4.926,0.603v-32.351H290.081z"/>
	<path style="fill:#999999;" d="M301.571,477.999v29.95c-1.638,0.296-3.276,0.579-4.926,0.85v-30.799H301.571z"/>
	<path style="fill:#999999;" d="M313.061,477.999v27.61c-1.638,0.382-3.276,0.739-4.926,1.071v-28.681H313.061z"/>
	<path style="fill:#999999;" d="M216.192,477.999v30.922c-1.65-0.259-3.288-0.53-4.926-0.813v-30.11H216.192z"/>
	<path style="fill:#999999;" d="M227.682,477.999v32.449c-1.65-0.185-3.288-0.382-4.926-0.591v-31.858H227.682z"/>
	<path style="fill:#999999;" d="M239.172,477.999v33.459c-1.65-0.111-3.288-0.234-4.926-0.369v-33.09L239.172,477.999
		L239.172,477.999z"/>
</g>
<g>
</g>
<g>
</g>
<g>
</g>
<g>
</g>
<g>
</g>
<g>
</g>
<g>
</g>
<g>
</g>
<g>
</g>
<g>
</g>
<g>
</g>
<g>
</g>
<g>
</g>
<g>
</g>
<g>
</g>
</svg>
