<?xml version="1.0" encoding="iso-8859-1"?>
<!-- Generator: Adobe Illustrator 19.0.0, SVG Export Plug-In . SVG Version: 6.00 Build 0)  -->
<svg version="1.1" id="Capa_1" xmlns="http://www.w3.org/2000/svg" xmlns:xlink="http://www.w3.org/1999/xlink" x="0px" y="0px"
	 viewBox="0 0 512 512" style="enable-background:new 0 0 512 512;" xml:space="preserve">
<circle style="fill:#87D7F5;" cx="256" cy="256" r="256"/>
<g>
	<path style="fill:#BAEAF7;" d="M373.358,191.927h-19.854c-7.358,0-13.323,5.965-13.323,13.323s5.965,13.323,13.323,13.323h19.854
		c7.358,0,13.323-5.965,13.323-13.323S380.716,191.927,373.358,191.927z"/>
	<path style="fill:#BAEAF7;" d="M155.662,315.177H115.46H72.308c-7.358,0-13.323-5.965-13.323-13.323s5.965-13.323,13.323-13.323
		H93.01c7.358,0,13.323-5.965,13.323-13.323s-5.965-13.323-13.323-13.323H0.075c1.107,49.063,16.02,94.713,41.002,133.23h55.368
		c7.358,0,13.323-5.965,13.323-13.323s-5.965-13.323-13.323-13.323h-5.611c-7.358,0-13.323-5.965-13.323-13.323
		s5.965-13.323,13.323-13.323h24.626h40.202c7.358,0,13.323-5.965,13.323-13.323S163.02,315.177,155.662,315.177z"/>
	<path style="fill:#BAEAF7;" d="M446.063,84.51h-44.465c-7.358,0-13.323,5.965-13.323,13.323s5.965,13.323,13.323,13.323h21.354
		c7.358,0,13.323,5.965,13.323,13.323s-5.965,13.323-13.323,13.323h-38.354c-7.358,0-13.323,5.965-13.323,13.323
		s5.965,13.323,13.323,13.323h84.854c7.358,0,13.323,5.965,13.323,13.323s-5.965,13.323-13.323,13.323h-46.854
		c-7.358,0-13.323,5.965-13.323,13.323s5.965,13.323,13.323,13.323h86.554C501.533,166.899,478.965,120.952,446.063,84.51z"/>
</g>
<g>
	<path style="fill:#77C680;" d="M128.737,441.547c-13.744-0.833-26.438,3.566-36.297,11.386
		c25.039,20.818,54.11,36.946,85.871,47.05c0.335-3.316,0.376-6.718,0.067-10.188C176.064,463.809,154.78,443.126,128.737,441.547z"
		/>
	<path style="fill:#77C680;" d="M462.927,406.722c-1.969-0.181-3.962-0.28-5.979-0.28c-24.162,0-45.202,13.312-56.225,32.994
		c-0.689,1.23-2.178,1.753-3.492,1.244c-5.483-2.123-11.439-3.295-17.671-3.295c-27.083,0-49.039,21.956-49.039,49.04
		c0,2.98,0.28,5.894,0.79,8.727h16.168C394.014,477.34,434.018,446.342,462.927,406.722z"/>
</g>
<path style="fill:#E8AB79;" d="M273.049,46.501h-10.396h-5.604H256h-1.049h-5.604h-10.396c0,38.914-1.221,74.514-3.393,107.083
	h19.835h1.213h19.835C274.27,121.015,273.049,85.414,273.049,46.501z"/>
<path style="fill:#D89E68;" d="M255.333,46.501h-0.382h-5.604h-10.396c0,38.914-1.221,74.514-3.393,107.083h19.775L255.333,46.501
	L255.333,46.501z"/>
<path style="fill:#C68A59;" d="M208.12,484.32c12.38-12.024,29.259-19.44,47.88-19.44s35.501,7.416,47.88,19.44
	c-4.298-11.673-8.212-24.151-11.788-37.236h-72.185C216.333,460.169,212.418,472.647,208.12,484.32z"/>
<path style="fill:#B77D51;" d="M246.548,447.084h-26.64c-3.575,13.085-7.49,25.563-11.787,37.236
	c8.907-8.651,20.151-14.897,32.69-17.732C242.814,460.261,244.726,453.753,246.548,447.084z"/>
<path style="fill:#C68A59;" d="M279.542,289.417c0-4.143-3.357-7.5-7.5-7.5h-32.083c-4.143,0-7.5,3.357-7.5,7.5s3.357,7.5,7.5,7.5
	h32.083C276.185,296.917,279.542,293.56,279.542,289.417z"/>
<path style="fill:#E8AB79;" d="M310.687,506.125c14.46-3.147,28.462-7.514,41.897-12.992
	c-26.152-45.565-64.608-144.093-76.142-339.55h-19.835C259.058,262.298,270.145,417.968,310.687,506.125z"/>
<path style="fill:#D89E68;" d="M235.558,153.584c-11.534,195.456-49.991,293.985-76.142,339.55
	c13.434,5.478,27.437,9.845,41.897,12.992c40.542-88.158,51.629-243.827,54.081-352.542L235.558,153.584L235.558,153.584z"/>
<g>
	<path style="fill:#EBE4DD;" d="M186.147,390.035c-4.143,0-7.5,3.357-7.5,7.5v19.235c0,4.143,3.357,7.5,7.5,7.5s7.5-3.357,7.5-7.5
		v-19.235C193.647,393.392,190.289,390.035,186.147,390.035z"/>
	<path style="fill:#EBE4DD;" d="M221.074,390.035c-4.143,0-7.5,3.357-7.5,7.5v19.235c0,4.143,3.357,7.5,7.5,7.5s7.5-3.357,7.5-7.5
		v-19.235C228.574,393.392,225.216,390.035,221.074,390.035z"/>
	<path style="fill:#EBE4DD;" d="M256,390.035c-4.143,0-7.5,3.357-7.5,7.5v19.235c0,4.143,3.357,7.5,7.5,7.5s7.5-3.357,7.5-7.5
		v-19.235C263.5,393.392,260.143,390.035,256,390.035z"/>
	<path style="fill:#EBE4DD;" d="M290.927,390.035c-4.143,0-7.5,3.357-7.5,7.5v19.235c0,4.143,3.357,7.5,7.5,7.5s7.5-3.357,7.5-7.5
		v-19.235C298.427,393.392,295.07,390.035,290.927,390.035z"/>
	<path style="fill:#EBE4DD;" d="M325.854,390.035c-4.143,0-7.5,3.357-7.5,7.5v19.235c0,4.143,3.357,7.5,7.5,7.5s7.5-3.357,7.5-7.5
		v-19.235C333.354,393.392,329.996,390.035,325.854,390.035z"/>
</g>
<path style="fill:#D89E68;" d="M298.167,274.417c0-4.143-3.357-7.5-7.5-7.5h-69.333c-4.143,0-7.5,3.357-7.5,7.5s3.357,7.5,7.5,7.5
	h69.333C294.81,281.917,298.167,278.56,298.167,274.417z"/>
<path style="fill:#C68A59;" d="M242.833,274.417c0-4.143,3.357-7.5,7.5-7.5h-29c-4.143,0-7.5,3.357-7.5,7.5s3.357,7.5,7.5,7.5h29
	C246.191,281.917,242.833,278.56,242.833,274.417z"/>
<path style="fill:#D89E68;" d="M285,153.584c0-4.142-3.357-7.5-7.5-7.5h-44.333c-4.143,0-7.5,3.358-7.5,7.5
	c0,4.143,3.357,7.5,7.5,7.5H277.5C281.642,161.084,285,157.727,285,153.584z"/>
<g>
	<path style="fill:#C68A59;" d="M249.167,153.584c0-4.143,3.357-7.5,7.5-7.5h-23.5c-4.143,0-7.5,3.357-7.5,7.5s3.357,7.5,7.5,7.5
		h23.5C252.524,161.084,249.167,157.727,249.167,153.584z"/>
	<path style="fill:#C68A59;" d="M285,168.584c0-4.142-3.357-7.5-7.5-7.5h-44.333c-4.143,0-7.5,3.358-7.5,7.5
		c0,4.143,3.357,7.5,7.5,7.5H277.5C281.642,176.084,285,172.727,285,168.584z"/>
</g>
<path style="fill:#B77D51;" d="M249.167,168.584c0-4.143,3.357-7.5,7.5-7.5h-23.5c-4.143,0-7.5,3.357-7.5,7.5s3.357,7.5,7.5,7.5
	h23.5C252.524,176.084,249.167,172.727,249.167,168.584z"/>
<path style="fill:#E8AB79;" d="M255.334,0.078c-4.446,0-8.05,3.604-8.05,8.05c0,8.495,0,24.803,0,32.781v15.027h16.1V40.909
	c0-7.978,0-24.286,0-32.781C263.384,3.683,259.78,0.078,255.334,0.078z"/>
<path style="fill:#D89E68;" d="M280.199,58.164c0-8.003-6.487-14.49-14.49-14.49h-20.752c-8.003,0-14.49,6.487-14.49,14.49
	s6.487,14.49,14.49,14.49h20.752C273.712,72.654,280.199,66.166,280.199,58.164z"/>
<path style="fill:#C68A59;" d="M253.161,58.164c0-7.675,5.971-13.94,13.519-14.441c-0.322-0.021-0.643-0.049-0.971-0.049h-20.752
	c-8.003,0-14.49,6.487-14.49,14.49s6.487,14.49,14.49,14.49h20.752c0.328,0,0.649-0.028,0.971-0.049
	C259.132,72.103,253.161,65.839,253.161,58.164z"/>
<path style="fill:#D89E68;" d="M336.5,402.751h-161c-4.143,0-7.5-3.357-7.5-7.5s3.357-7.5,7.5-7.5h161c4.143,0,7.5,3.357,7.5,7.5
	C344,399.393,340.642,402.751,336.5,402.751z"/>
<path style="fill:#C68A59;" d="M222.101,395.251c0-4.143,3.357-7.5,7.5-7.5H175.5c-4.143,0-7.5,3.357-7.5,7.5s3.357,7.5,7.5,7.5
	h54.101C225.458,402.751,222.101,399.393,222.101,395.251z"/>
<path style="fill:#D89E68;" d="M338.897,448.751H173.102c-2.531,0-4.602-2.071-4.602-4.603v-24.795c0-2.531,2.071-4.602,4.602-4.602
	h165.795c2.531,0,4.603,2.071,4.603,4.602v24.795C343.5,446.68,341.429,448.751,338.897,448.751z"/>
<path style="fill:#C68A59;" d="M222.601,444.148v-24.795c0-2.531,2.071-4.602,4.602-4.602h-54.101c-2.531,0-4.602,2.071-4.602,4.602
	v24.795c0,2.531,2.071,4.603,4.602,4.603h54.101C224.672,448.751,222.601,446.679,222.601,444.148z"/>
<g>
</g>
<g>
</g>
<g>
</g>
<g>
</g>
<g>
</g>
<g>
</g>
<g>
</g>
<g>
</g>
<g>
</g>
<g>
</g>
<g>
</g>
<g>
</g>
<g>
</g>
<g>
</g>
<g>
</g>
</svg>
