<?xml version="1.0" encoding="iso-8859-1"?>
<!-- Generator: Adobe Illustrator 19.0.0, SVG Export Plug-In . SVG Version: 6.00 Build 0)  -->
<svg version="1.1" id="Layer_1" xmlns="http://www.w3.org/2000/svg" xmlns:xlink="http://www.w3.org/1999/xlink" x="0px" y="0px"
	 viewBox="0 0 512.005 512.005" style="enable-background:new 0 0 512.005 512.005;" xml:space="preserve">
<circle style="fill:#D7F3FF;" cx="256.002" cy="256.002" r="256.002"/>
<polygon style="fill:#F9D2AF;" points="181.338,109.019 210.439,178.672 109.875,178.672 109.875,109.019 "/>
<g>
	<path style="fill:#9AD14B;" d="M129.16,317.966l9.236,57.203l-26.477,32.019l-75.527-19.568
		c-15.578-25.911-26.686-54.826-32.265-85.65c1.958-0.85,4.125-1.305,6.404-1.305c3.584,0,6.884,1.158,9.593,3.116
		c-0.012-0.086-0.012-0.16-0.012-0.246c0-7.931,6.428-14.359,14.359-14.359c5.492,0,10.258,3.079,12.684,7.598
		c3.744-6.749,10.936-11.317,19.199-11.317c8.719,0,16.231,5.098,19.778,12.463c1.847-0.862,3.892-1.355,6.059-1.355
		c7.943,0,14.372,6.428,14.372,14.359c0,0.16-0.012,0.32-0.025,0.48c1.158,0.111,2.278,0.357,3.337,0.714L129.16,317.966z"/>
	<path style="fill:#9AD14B;" d="M503.066,296.243c1.983,0.369,3.818,1.096,5.443,2.081c-5.357,32.191-16.724,62.363-32.905,89.295
		l-68.742,16.49l-12.192-38.78l9.113-47.363l17.955-21.256h0.998c3.682-3.559,8.965-5.332,14.372-4.323
		c2.426,0.456,4.606,1.429,6.49,2.783c5.492-7.475,14.938-11.588,24.679-9.753c9.224,1.724,16.28,8.337,19.051,16.65
		C490.972,297.523,496.945,295.085,503.066,296.243z"/>
</g>
<path style="fill:#F4C290;" d="M421.738,317.966v47.363c0-7.475-27.068,22.29-27.068,22.29h-57.388L233.221,264.951l14.002-41.464
	h174.515V317.966z"/>
<path style="fill:#F7B239;" d="M351.74,105.977c0,0.308,0,0.616-0.012,0.936c0,0-23.398,33.423-23.263,34.088
	c-4.52,1.896-9.482,2.943-14.692,2.943c-20.972,0-37.967-16.995-37.967-37.967s16.995-37.967,37.967-37.967
	C334.745,68.01,351.74,85.005,351.74,105.977z"/>
<path style="fill:#F9D2AF;" d="M424.718,226.774H241.226c-1.701,0-3.079-1.378-3.079-3.079s1.378-3.079,3.079-3.079h183.492
	c1.701,0,3.079,1.378,3.079,3.079S426.419,226.774,424.718,226.774z"/>
<g>
	<path style="fill:#666666;" d="M374.276,365.329v22.29H358.55l-10.849-25.96c1.601-5.689,6.835-9.877,13.042-9.877
		C368.217,351.783,374.276,357.854,374.276,365.329z"/>
	<path style="fill:#666666;" d="M421.738,365.329v22.29H394.67v-22.29c0-7.475,6.059-13.546,13.534-13.546
		S421.738,357.854,421.738,365.329z"/>
	<path style="fill:#666666;" d="M421.738,296.711v21.256H394.67v-22.29c0-7.475,6.059-13.534,13.534-13.534
		s13.534,6.059,13.534,13.534L421.738,296.711L421.738,296.711z"/>
	<path style="fill:#666666;" d="M374.276,295.676v22.29h-27.08v-22.29c0-7.475,6.071-13.534,13.546-13.534
		S374.276,288.201,374.276,295.676z"/>
	<path style="fill:#666666;" d="M321.815,295.676v22.29H303.81l-9.076-21.724v-0.566c0-7.475,6.059-13.534,13.534-13.534
		C315.756,282.142,321.815,288.201,321.815,295.676z"/>
</g>
<g>
	<polygon style="fill:#F9D2AF;" points="228.504,178.672 109.875,178.672 109.875,248.325 257.605,248.325 	"/>
	<polygon style="fill:#F9D2AF;" points="274.944,248.325 109.875,248.325 109.875,317.979 304.044,317.979 	"/>
	<path style="fill:#F9D2AF;" d="M424.718,321.045H241.226c-1.701,0-3.079-1.378-3.079-3.079s1.378-3.079,3.079-3.079h183.492
		c1.701,0,3.079,1.378,3.079,3.079S426.419,321.045,424.718,321.045z"/>
	<polygon style="fill:#F9D2AF;" points="329.45,317.966 109.875,317.966 109.875,387.619 358.55,387.619 	"/>
</g>
<g>
	<path style="fill:#666666;" d="M228.652,226.023v22.302h-27.081v-22.302c0-7.475,6.059-13.534,13.534-13.534
		C222.581,212.489,228.652,218.548,228.652,226.023z"/>
	<path style="fill:#666666;" d="M182.804,226.023v22.302h-27.08v-22.302c0-7.475,6.059-13.534,13.546-13.534
		C176.745,212.489,182.804,218.548,182.804,226.023z"/>
	<path style="fill:#666666;" d="M136.955,226.023v22.302h-27.081v-22.302c0-7.475,6.071-13.534,13.546-13.534
		S136.955,218.548,136.955,226.023z"/>
	<path style="fill:#666666;" d="M136.955,295.676v22.29h-27.081v-5.85v-16.44c0-7.475,6.071-13.534,13.546-13.534
		S136.955,288.201,136.955,295.676z"/>
	<path style="fill:#666666;" d="M184.417,295.676v22.29h-27.068v-22.29c0-7.475,6.059-13.534,13.534-13.534
		C178.358,282.142,184.417,288.201,184.417,295.676z"/>
	<path style="fill:#666666;" d="M231.879,295.676v22.29h-27.068v-22.29c0-7.475,6.059-13.534,13.534-13.534
		C225.82,282.142,231.879,288.201,231.879,295.676z"/>
	<path style="fill:#666666;" d="M279.353,295.676v22.29h-27.081v-22.29c0-7.475,6.059-13.534,13.534-13.534
		C273.282,282.142,279.353,288.201,279.353,295.676z"/>
</g>
<path style="fill:#CCCCCC;" d="M421.738,387.619h53.865C430.851,462.137,349.252,512,256.004,512S81.144,462.137,36.392,387.619
	h73.483h27.081h20.393h27.068h20.393h27.068h20.393h27.081h20.381h27.081h31.736h15.726h20.393H421.738z"/>
<g>
	<path style="fill:#666666;" d="M326.814,365.329v22.29h-27.081v-22.29c0-7.475,6.059-13.546,13.534-13.546
		C320.756,351.783,326.814,357.854,326.814,365.329z"/>
	<path style="fill:#666666;" d="M279.353,365.329v22.29h-27.081v-22.29c0-7.475,6.059-13.546,13.534-13.546
		S279.353,357.854,279.353,365.329z"/>
	<path style="fill:#666666;" d="M231.879,365.329v22.29h-27.068v-22.29c0-7.475,6.059-13.546,13.534-13.546
		C225.82,351.783,231.879,357.854,231.879,365.329z"/>
	<path style="fill:#666666;" d="M184.417,365.329v22.29h-27.068v-22.29c0-7.475,6.059-13.546,13.534-13.546
		C178.358,351.783,184.417,357.854,184.417,365.329z"/>
	<path style="fill:#666666;" d="M136.955,365.329v22.29h-27.081v-22.29c0-7.475,6.071-13.546,13.546-13.546
		S136.955,357.854,136.955,365.329z"/>
	<path style="fill:#666666;" d="M403.573,263.313c-3.4,0-6.157-2.757-6.157-6.157v-8.214c0-3.4,2.757-6.157,6.157-6.157
		c3.4,0,6.157,2.757,6.157,6.157v8.214C409.731,260.557,406.975,263.313,403.573,263.313z"/>
	<path style="fill:#666666;" d="M377.096,263.313c-3.4,0-6.157-2.757-6.157-6.157v-8.214c0-3.4,2.757-6.157,6.157-6.157
		c3.4,0,6.157,2.757,6.157,6.157v8.214C383.254,260.557,380.498,263.313,377.096,263.313z"/>
	<path style="fill:#666666;" d="M350.619,263.313c-3.4,0-6.157-2.757-6.157-6.157v-8.214c0-3.4,2.757-6.157,6.157-6.157
		c3.4,0,6.157,2.757,6.157,6.157v8.214C356.777,260.557,354.021,263.313,350.619,263.313z"/>
	<path style="fill:#666666;" d="M297.665,263.313c-3.4,0-6.157-2.757-6.157-6.157v-8.214c0-3.4,2.757-6.157,6.157-6.157
		c3.4,0,6.157,2.757,6.157,6.157v8.214C303.823,260.557,301.066,263.313,297.665,263.313z"/>
	<path style="fill:#666666;" d="M324.142,263.313c-3.4,0-6.157-2.757-6.157-6.157v-8.214c0-3.4,2.757-6.157,6.157-6.157
		c3.4,0,6.157,2.757,6.157,6.157v8.214C330.3,260.557,327.543,263.313,324.142,263.313z"/>
	<path style="fill:#666666;" d="M132.029,155.754c-3.4,0-6.157-2.757-6.157-6.157v-10.665c0-3.4,2.757-6.157,6.157-6.157
		c3.4,0,6.157,2.757,6.157,6.157v10.665C138.187,152.998,135.431,155.754,132.029,155.754z"/>
	<path style="fill:#666666;" d="M166.511,155.754c-3.4,0-6.157-2.757-6.157-6.157v-10.665c0-3.4,2.757-6.157,6.157-6.157
		c3.4,0,6.157,2.757,6.157,6.157v10.665C172.669,152.998,169.913,155.754,166.511,155.754z"/>
</g>
<path style="fill:#FFFFFF;" d="M388.18,128.255c5.899,0,10.677,4.778,10.677,10.677c0,5.887-4.778,10.665-10.677,10.665h-49.26
	c-5.172,0-9.495-3.694-10.455-8.596c-0.135-0.665-0.209-1.355-0.209-2.069c0-5.899,4.778-10.677,10.665-10.677h-18.879
	c-2.956,0-5.616-1.195-7.549-3.128c-1.933-1.933-3.128-4.606-3.128-7.549c0-5.887,4.778-10.665,10.677-10.665h31.686h17.573
	c2.956,0,5.616,1.195,7.549,3.128c1.933,1.933,3.128,4.593,3.128,7.537c0,5.899-4.778,10.677-10.677,10.677
	C369.301,128.255,388.18,128.255,388.18,128.255z"/>
<g>
	<path style="fill:#F4C290;" d="M283.096,251.404H105.146c-1.701,0-3.079-1.378-3.079-3.079s1.378-3.079,3.079-3.079h177.951
		c1.701,0,3.079,1.378,3.079,3.079S284.797,251.404,283.096,251.404z"/>
	<path style="fill:#F4C290;" d="M335.435,321.045H105.146c-1.701,0-3.079-1.378-3.079-3.079s1.378-3.079,3.079-3.079h230.289
		c1.701,0,3.079,1.378,3.079,3.079S337.136,321.045,335.435,321.045z"/>
	<path style="fill:#F4C290;" d="M235.068,182.502H105.146c-1.701,0-3.079-1.378-3.079-3.079c0-1.701,1.378-3.079,3.079-3.079
		h129.922c1.701,0,3.079,1.378,3.079,3.079C238.147,181.124,236.769,182.502,235.068,182.502z"/>
</g>
<g>
</g>
<g>
</g>
<g>
</g>
<g>
</g>
<g>
</g>
<g>
</g>
<g>
</g>
<g>
</g>
<g>
</g>
<g>
</g>
<g>
</g>
<g>
</g>
<g>
</g>
<g>
</g>
<g>
</g>
</svg>
